<svg id="Layer_1" data-name="Layer 1" xmlns="http://www.w3.org/2000/svg" xmlns:xlink="http://www.w3.org/1999/xlink" width="527.09" height="698.95" viewBox="0 0 527.09 698.95"><defs><style>.cls-1{fill:url(#linear-gradient);}.cls-2{fill:#e9e8e8;}.cls-3{fill:#76cae7;}.cls-4{fill:#1c8bb4;}.cls-5{fill:url(#radial-gradient);}</style><linearGradient id="linear-gradient" x1="83.84" y1="434.73" x2="479.16" y2="434.73" gradientTransform="matrix(1.33, 0, 0, -1.33, -0.33, 1002.33)" gradientUnits="userSpaceOnUse"><stop offset="0" stop-color="#095ca2"/><stop offset="0.07" stop-color="#0b61aa"/><stop offset="0.36" stop-color="#2170b7"/><stop offset="0.52" stop-color="#2974ba"/><stop offset="0.64" stop-color="#2471b8"/><stop offset="0.82" stop-color="#176ab3"/><stop offset="1" stop-color="#095ca2"/></linearGradient><radialGradient id="radial-gradient" cx="292.6" cy="422.09" r="218.01" gradientTransform="matrix(1.33, 0, 0, -1.33, -0.33, 1002.33)" gradientUnits="userSpaceOnUse"><stop offset="0" stop-color="#f2f2f2"/><stop offset="0.58" stop-color="#efeeee"/><stop offset="1" stop-color="#e7e6e6"/></radialGradient></defs><title>azure_sql_database_logo_freelogovectors.net</title><path class="cls-1" d="M375,216.3c-145.55,0-263.54-41.12-263.54-95.39V629.09c0,52.21,115.94,94.56,259.84,95.38H375c145.55,0,263.54-41.11,263.54-95.38V120.91C638.54,174,520.55,216.3,375,216.3Z" transform="translate(-111.46 -25.53)"/><path class="cls-2" d="M638.54,120.91c0,53-118,95.39-263.54,95.39s-263.54-41.12-263.54-95.39S229.45,25.53,375,25.53s263.54,41.11,263.54,95.38" transform="translate(-111.46 -25.53)"/><path class="cls-3" d="M577.28,113.1C577.28,146.81,486.42,174,375,174S172.72,146.81,172.72,113.1,263.58,52.66,375,52.66,577.28,79.8,577.28,113.1" transform="translate(-111.46 -25.53)"/><path class="cls-4" d="M375,128.31a474.94,474.94,0,0,0-159.94,23.44A469.6,469.6,0,0,0,375,174,458.33,458.33,0,0,0,534.94,150.1,487.12,487.12,0,0,0,375,128.31Z" transform="translate(-111.46 -25.53)"/><path class="cls-5" d="M535.35,473.67V333.89h-37v169.8H599.49v-30ZM241.79,405a75.18,75.18,0,0,1-21-12.74,18.08,18.08,0,0,1-4.93-13.16,14,14,0,0,1,6.16-12.33,28,28,0,0,1,17.27-4.94,66.67,66.67,0,0,1,41.12,11.93V338.41a106,106,0,0,0-41.12-6.58,67.39,67.39,0,0,0-44.81,14,44.4,44.4,0,0,0-17.27,36.59c0,21,13.16,37.41,41.11,49.75A118,118,0,0,1,243.84,447,17.25,17.25,0,0,1,250,460.11a15.62,15.62,0,0,1-6.58,12.74,33.3,33.3,0,0,1-18.5,4.53,68.27,68.27,0,0,1-44.81-17.27v38.23a89.21,89.21,0,0,0,44,9.87,77.25,77.25,0,0,0,48.51-13.57,44.35,44.35,0,0,0,13.57-37.41,43.16,43.16,0,0,0-10.28-28.78A99.52,99.52,0,0,0,241.79,405Zm215.44,65.38a90.07,90.07,0,0,0,0-95.39,74.42,74.42,0,0,0-28.78-30.84,82.26,82.26,0,0,0-41.12-10.69,86.76,86.76,0,0,0-44.4,11.11,76.44,76.44,0,0,0-30,30.42,101.09,101.09,0,0,0-10.69,46.87A92.94,92.94,0,0,0,312.09,463a72.47,72.47,0,0,0,28.37,30.42,84.72,84.72,0,0,0,41.12,12.33l35.36,41.12h49.75l-50.58-45.23A73.56,73.56,0,0,0,457.23,470.39Zm-41.12-10.28a38.63,38.63,0,0,1-31.24,14.39,37.84,37.84,0,0,1-31.25-14.8,62.52,62.52,0,0,1-11.92-41.12,62.85,62.85,0,0,1,11.92-41.11,41.14,41.14,0,0,1,32.07-15.22,35.78,35.78,0,0,1,30.84,15.22,66.58,66.58,0,0,1,11.1,41.11A60,60,0,0,1,416.11,460.11Z" transform="translate(-111.46 -25.53)"/></svg>